<svg xmlns="http://www.w3.org/2000/svg" xmlns:xlink="http://www.w3.org/1999/xlink" width="512" zoomAndPan="magnify" viewBox="0 0 384 383.999986" height="512" preserveAspectRatio="xMidYMid meet" version="1.0"><defs><g/><clipPath id="6e9c942d6a"><rect x="0" width="380" y="0" height="276"/></clipPath></defs><g transform="matrix(1, 0, 0, 1, 0, 54)"><g clip-path="url(#6e9c942d6a)"><g fill="#666665" fill-opacity="1"><g transform="translate(0.986096, 218.148815)"><g><path d="M 157.625 0 L 157.171875 -83.296875 L 116.75 -15.5 L 97 -15.5 L 56.8125 -81.0625 L 56.8125 0 L 15.71875 0 L 15.71875 -157.171875 L 52.3125 -157.171875 L 107.546875 -66.46875 L 161.4375 -157.171875 L 198.03125 -157.171875 L 198.484375 0 Z M 157.625 0 "/></g></g></g><g fill="#ff8753" fill-opacity="1"><g transform="translate(210.038689, 218.148815)"><g><path d="M 121.015625 -81.953125 L 160.3125 -81.953125 L 160.3125 -16.84375 C 151.332031 -10.40625 141.003906 -5.460938 129.328125 -2.015625 C 117.648438 1.421875 105.972656 3.140625 94.296875 3.140625 C 77.835938 3.140625 63.019531 -0.335938 49.84375 -7.296875 C 36.675781 -14.253906 26.347656 -23.945312 18.859375 -36.375 C 11.378906 -48.800781 7.640625 -62.867188 7.640625 -78.578125 C 7.640625 -94.296875 11.378906 -108.367188 18.859375 -120.796875 C 26.347656 -133.222656 36.75 -142.914062 50.0625 -149.875 C 63.382812 -156.832031 78.429688 -160.3125 95.203125 -160.3125 C 109.867188 -160.3125 123.039062 -157.84375 134.71875 -152.90625 C 146.394531 -147.96875 156.125 -140.859375 163.90625 -131.578125 L 135.609375 -105.984375 C 124.984375 -117.648438 112.265625 -123.484375 97.453125 -123.484375 C 83.972656 -123.484375 73.117188 -119.40625 64.890625 -111.25 C 56.660156 -103.09375 52.546875 -92.203125 52.546875 -78.578125 C 52.546875 -69.898438 54.414062 -62.15625 58.15625 -55.34375 C 61.894531 -48.53125 67.128906 -43.210938 73.859375 -39.390625 C 80.597656 -35.578125 88.3125 -33.671875 97 -33.671875 C 105.53125 -33.671875 113.535156 -35.394531 121.015625 -38.84375 Z M 121.015625 -81.953125 "/></g></g></g></g></g></svg>