<svg xmlns="http://www.w3.org/2000/svg" xmlns:xlink="http://www.w3.org/1999/xlink" zoomAndPan="magnify" preserveAspectRatio="xMidYMid meet" version="1.0" viewBox="20.28 113.65 350.03 160.18"><defs><g/></defs><g fill="#1a1714" fill-opacity="1"><g transform="translate(4.887978, 270.749979)"><g><path d="M 154.4375 0 L 154 -81.625 L 114.40625 -15.1875 L 95.046875 -15.1875 L 55.65625 -79.421875 L 55.65625 0 L 15.40625 0 L 15.40625 -154 L 51.265625 -154 L 105.375 -65.125 L 158.1875 -154 L 194.046875 -154 L 194.484375 0 Z M 154.4375 0 "/></g></g></g><g fill="#e8720c" fill-opacity="1"><g transform="translate(209.708278, 270.749979)"><g><path d="M 118.578125 -80.296875 L 157.078125 -80.296875 L 157.078125 -16.5 C 148.273438 -10.195312 138.15625 -5.359375 126.71875 -1.984375 C 115.28125 1.390625 103.84375 3.078125 92.40625 3.078125 C 76.269531 3.078125 61.75 -0.328125 48.84375 -7.140625 C 35.9375 -13.960938 25.816406 -23.460938 18.484375 -35.640625 C 11.148438 -47.816406 7.484375 -61.601562 7.484375 -77 C 7.484375 -92.394531 11.148438 -106.179688 18.484375 -118.359375 C 25.816406 -130.535156 36.007812 -140.03125 49.0625 -146.84375 C 62.113281 -153.664062 76.851562 -157.078125 93.28125 -157.078125 C 107.65625 -157.078125 120.5625 -154.65625 132 -149.8125 C 143.4375 -144.976562 152.96875 -138.015625 160.59375 -128.921875 L 132.875 -103.84375 C 122.46875 -115.28125 110.003906 -121 95.484375 -121 C 82.285156 -121 71.648438 -117 63.578125 -109 C 55.515625 -101.007812 51.484375 -90.34375 51.484375 -77 C 51.484375 -68.488281 53.316406 -60.894531 56.984375 -54.21875 C 60.648438 -47.550781 65.78125 -42.347656 72.375 -38.609375 C 78.976562 -34.867188 86.535156 -33 95.046875 -33 C 103.398438 -33 111.242188 -34.6875 118.578125 -38.0625 Z M 118.578125 -80.296875 "/></g></g></g></svg>