<svg xmlns="http://www.w3.org/2000/svg" xmlns:xlink="http://www.w3.org/1999/xlink" zoomAndPan="magnify" preserveAspectRatio="xMidYMid meet" version="1.0" viewBox="17.55 158.02 349.58 77.25"><defs><g/></defs><g fill="#666665" fill-opacity="1"><g transform="translate(12.190436, 219.687859)"><g><path d="M 53.828125 0 L 53.6875 -28.453125 L 39.875 -5.296875 L 33.125 -5.296875 L 19.40625 -27.6875 L 19.40625 0 L 5.375 0 L 5.375 -53.6875 L 17.875 -53.6875 L 36.734375 -22.703125 L 55.140625 -53.6875 L 67.640625 -53.6875 L 67.796875 0 Z M 53.828125 0 "/></g></g></g><g fill="#666665" fill-opacity="1"><g transform="translate(83.586491, 219.687859)"><g><path d="M 4.671875 -41.5625 L 19.25 -41.5625 L 19.25 0 L 4.671875 0 Z M 11.96875 -46.171875 C 9.300781 -46.171875 7.148438 -46.910156 5.515625 -48.390625 C 3.878906 -49.867188 3.0625 -51.707031 3.0625 -53.90625 C 3.0625 -56.101562 3.878906 -57.941406 5.515625 -59.421875 C 7.148438 -60.910156 9.300781 -61.65625 11.96875 -61.65625 C 14.625 -61.65625 16.769531 -60.953125 18.40625 -59.546875 C 20.039062 -58.140625 20.859375 -56.335938 20.859375 -54.140625 C 20.859375 -51.835938 20.039062 -49.929688 18.40625 -48.421875 C 16.769531 -46.921875 14.625 -46.171875 11.96875 -46.171875 Z M 11.96875 -46.171875 "/></g></g></g><g fill="#666665" fill-opacity="1"><g transform="translate(105.825816, 219.687859)"><g><path d="M 23.546875 -14.578125 L 19.25 -10.203125 L 19.25 0 L 4.671875 0 L 4.671875 -56.90625 L 19.25 -56.90625 L 19.25 -27.078125 L 34.125 -41.5625 L 51.375 -41.5625 L 34.125 -23.765625 L 52.84375 0 L 35.203125 0 Z M 23.546875 -14.578125 "/></g></g></g><g fill="#666665" fill-opacity="1"><g transform="translate(156.6696, 219.687859)"><g><path d="M 18.5625 -36.578125 C 20.039062 -38.472656 21.96875 -39.890625 24.34375 -40.828125 C 26.726562 -41.773438 29.453125 -42.25 32.515625 -42.25 L 32.515625 -29.140625 C 31.179688 -29.296875 30.082031 -29.375 29.21875 -29.375 C 26.101562 -29.375 23.660156 -28.53125 21.890625 -26.84375 C 20.128906 -25.15625 19.25 -22.570312 19.25 -19.09375 L 19.25 0 L 4.671875 0 L 4.671875 -41.5625 L 18.5625 -41.5625 Z M 18.5625 -36.578125 "/></g></g></g><g fill="#666665" fill-opacity="1"><g transform="translate(188.878307, 219.687859)"><g><path d="M 25.53125 0.6875 C 21.082031 0.6875 17.066406 -0.226562 13.484375 -2.0625 C 9.910156 -3.90625 7.113281 -6.460938 5.09375 -9.734375 C 3.082031 -13.003906 2.078125 -16.710938 2.078125 -20.859375 C 2.078125 -24.953125 3.082031 -28.632812 5.09375 -31.90625 C 7.113281 -35.175781 9.898438 -37.71875 13.453125 -39.53125 C 17.003906 -41.34375 21.03125 -42.25 25.53125 -42.25 C 30.03125 -42.25 34.066406 -41.34375 37.640625 -39.53125 C 41.222656 -37.71875 44.007812 -35.1875 46 -31.9375 C 48 -28.695312 49 -25.003906 49 -20.859375 C 49 -16.710938 48 -13.003906 46 -9.734375 C 44.007812 -6.460938 41.222656 -3.90625 37.640625 -2.0625 C 34.066406 -0.226562 30.03125 0.6875 25.53125 0.6875 Z M 25.53125 -10.890625 C 28.09375 -10.890625 30.191406 -11.769531 31.828125 -13.53125 C 33.460938 -15.300781 34.28125 -17.742188 34.28125 -20.859375 C 34.28125 -23.921875 33.460938 -26.320312 31.828125 -28.0625 C 30.191406 -29.800781 28.09375 -30.671875 25.53125 -30.671875 C 22.976562 -30.671875 20.882812 -29.800781 19.25 -28.0625 C 17.613281 -26.320312 16.796875 -23.921875 16.796875 -20.859375 C 16.796875 -17.742188 17.613281 -15.300781 19.25 -13.53125 C 20.882812 -11.769531 22.976562 -10.890625 25.53125 -10.890625 Z M 25.53125 -10.890625 "/></g></g></g><g fill="#ff8753" fill-opacity="1"><g transform="translate(238.198231, 219.687859)"><g><path d="M 41.328125 -27.984375 L 54.75 -27.984375 L 54.75 -5.75 C 51.6875 -3.550781 48.160156 -1.863281 44.171875 -0.6875 C 40.179688 0.488281 36.191406 1.078125 32.203125 1.078125 C 26.578125 1.078125 21.515625 -0.109375 17.015625 -2.484375 C 12.523438 -4.867188 9 -8.179688 6.4375 -12.421875 C 3.882812 -16.660156 2.609375 -21.46875 2.609375 -26.84375 C 2.609375 -32.207031 3.882812 -37.007812 6.4375 -41.25 C 9 -45.5 12.550781 -48.8125 17.09375 -51.1875 C 21.644531 -53.5625 26.785156 -54.75 32.515625 -54.75 C 37.523438 -54.75 42.023438 -53.90625 46.015625 -52.21875 C 50.003906 -50.53125 53.328125 -48.101562 55.984375 -44.9375 L 46.3125 -36.203125 C 42.6875 -40.179688 38.34375 -42.171875 33.28125 -42.171875 C 28.675781 -42.171875 24.96875 -40.773438 22.15625 -37.984375 C 19.34375 -35.203125 17.9375 -31.488281 17.9375 -26.84375 C 17.9375 -23.875 18.578125 -21.226562 19.859375 -18.90625 C 21.140625 -16.582031 22.929688 -14.765625 25.234375 -13.453125 C 27.535156 -12.148438 30.164062 -11.5 33.125 -11.5 C 36.039062 -11.5 38.773438 -12.085938 41.328125 -13.265625 Z M 41.328125 -27.984375 "/></g></g></g><g fill="#ff8753" fill-opacity="1"><g transform="translate(295.483767, 219.687859)"><g><path d="M 4.671875 -41.5625 L 19.25 -41.5625 L 19.25 0 L 4.671875 0 Z M 11.96875 -46.171875 C 9.300781 -46.171875 7.148438 -46.910156 5.515625 -48.390625 C 3.878906 -49.867188 3.0625 -51.707031 3.0625 -53.90625 C 3.0625 -56.101562 3.878906 -57.941406 5.515625 -59.421875 C 7.148438 -60.910156 9.300781 -61.65625 11.96875 -61.65625 C 14.625 -61.65625 16.769531 -60.953125 18.40625 -59.546875 C 20.039062 -58.140625 20.859375 -56.335938 20.859375 -54.140625 C 20.859375 -51.835938 20.039062 -49.929688 18.40625 -48.421875 C 16.769531 -46.921875 14.625 -46.171875 11.96875 -46.171875 Z M 11.96875 -46.171875 "/></g></g></g><g fill="#ff8753" fill-opacity="1"><g transform="translate(317.723092, 219.687859)"><g><path d="M 49.390625 -41.5625 L 49.390625 -7.59375 C 49.390625 0.121094 47.289062 5.910156 43.09375 9.765625 C 38.90625 13.628906 32.875 15.5625 25 15.5625 C 20.90625 15.5625 17.066406 15.101562 13.484375 14.1875 C 9.910156 13.269531 6.875 11.914062 4.375 10.125 L 9.65625 -0.078125 C 11.34375 1.304688 13.476562 2.394531 16.0625 3.1875 C 18.644531 3.976562 21.191406 4.375 23.703125 4.375 C 27.535156 4.375 30.34375 3.53125 32.125 1.84375 C 33.914062 0.15625 34.8125 -2.347656 34.8125 -5.671875 L 34.8125 -7.0625 C 32 -3.78125 27.882812 -2.140625 22.46875 -2.140625 C 18.789062 -2.140625 15.390625 -2.96875 12.265625 -4.625 C 9.148438 -6.289062 6.671875 -8.644531 4.828125 -11.6875 C 2.992188 -14.726562 2.078125 -18.242188 2.078125 -22.234375 C 2.078125 -26.171875 2.992188 -29.660156 4.828125 -32.703125 C 6.671875 -35.742188 9.148438 -38.09375 12.265625 -39.75 C 15.390625 -41.414062 18.789062 -42.25 22.46875 -42.25 C 28.394531 -42.25 32.738281 -40.332031 35.5 -36.5 L 35.5 -41.5625 Z M 25.921875 -13.734375 C 28.523438 -13.734375 30.679688 -14.523438 32.390625 -16.109375 C 34.109375 -17.691406 34.96875 -19.734375 34.96875 -22.234375 C 34.96875 -24.742188 34.125 -26.773438 32.4375 -28.328125 C 30.75 -29.890625 28.578125 -30.671875 25.921875 -30.671875 C 23.265625 -30.671875 21.078125 -29.890625 19.359375 -28.328125 C 17.648438 -26.773438 16.796875 -24.742188 16.796875 -22.234375 C 16.796875 -19.734375 17.664062 -17.691406 19.40625 -16.109375 C 21.144531 -14.523438 23.316406 -13.734375 25.921875 -13.734375 Z M 25.921875 -13.734375 "/></g></g></g></svg>